/* XPM */
static char * clams32_xpm[] = {
"32 32 517 2",
"  	c None",
". 	c #192429",
"+ 	c #202C31",
"@ 	c #2C393F",
"# 	c #3B4950",
"$ 	c #425157",
"% 	c #38474D",
"& 	c #2C3C41",
"* 	c #203035",
"= 	c #162629",
"- 	c #122023",
"; 	c #101A1F",
"> 	c #1E2A2F",
", 	c #3A4347",
"' 	c #525A5D",
") 	c #5C676B",
"! 	c #5B686E",
"~ 	c #4D5B60",
"{ 	c #445255",
"] 	c #414D4F",
"^ 	c #404A4A",
"/ 	c #3B4443",
"( 	c #2A3636",
"_ 	c #172728",
": 	c #0F1F22",
"< 	c #0F181D",
"[ 	c #162125",
"} 	c #383F41",
"| 	c #464E51",
"1 	c #435056",
"2 	c #44555E",
"3 	c #465963",
"4 	c #394D56",
"5 	c #2F434A",
"6 	c #283C41",
"7 	c #213539",
"8 	c #1A2D31",
"9 	c #1A2D2F",
"0 	c #263536",
"a 	c #35403E",
"b 	c #364140",
"c 	c #213237",
"d 	c #223138",
"e 	c #0E171C",
"f 	c #262E31",
"g 	c #3F4647",
"h 	c #364348",
"i 	c #36474F",
"j 	c #41535D",
"k 	c #172B2E",
"l 	c #1D3035",
"m 	c #314246",
"n 	c #4C585C",
"o 	c #3F4F58",
"p 	c #2E3F4C",
"q 	c #2E3537",
"r 	c #394245",
"s 	c #2D3C43",
"t 	c #3C4A49",
"u 	c #63624A",
"v 	c #464934",
"w 	c #182C2E",
"x 	c #263A41",
"y 	c #2E444E",
"z 	c #39505D",
"A 	c #566875",
"B 	c #697480",
"C 	c #676E76",
"D 	c #0D161B",
"E 	c #252A2E",
"F 	c #2F383D",
"G 	c #2B3B42",
"H 	c #465A63",
"I 	c #5F6D70",
"J 	c #82867D",
"K 	c #6F7162",
"L 	c #C2A76D",
"M 	c #D0A64C",
"N 	c #C19229",
"O 	c #7D6627",
"P 	c #6D5F29",
"Q 	c #605D31",
"R 	c #2A3E42",
"S 	c #374F5C",
"T 	c #415A6A",
"U 	c #607182",
"V 	c #9CA1AB",
"W 	c #BEBFC2",
"X 	c #959799",
"Y 	c #0E161B",
"Z 	c #1D2328",
"` 	c #2E363A",
" .	c #465A64",
"..	c #677577",
"+.	c #E3DCC1",
"@.	c #EBD8A8",
"#.	c #CBB176",
"$.	c #D9AD50",
"%.	c #D09D2D",
"&.	c #D09D2A",
"*.	c #BF952E",
"=.	c #D7AF34",
"-.	c #DDC544",
";.	c #94964F",
">.	c #39505E",
",.	c #425B6C",
"'.	c #949CA7",
").	c #CED0D4",
"!.	c #E8E9E9",
"~.	c #C4C5C6",
"{.	c #888A8C",
"].	c #121B20",
"^.	c #32373C",
"/.	c #2C3C42",
"(.	c #42545D",
"_.	c #617075",
":.	c #8C9490",
"<.	c #C5C1AB",
"[.	c #EFDBAB",
"}.	c #E4C480",
"|.	c #C39F4F",
"1.	c #D3A22D",
"2.	c #C6A336",
"3.	c #E5CC46",
"4.	c #ECE35A",
"5.	c #DDD55C",
"6.	c #9C9B5A",
"7.	c #8C8E61",
"8.	c #969DA2",
"9.	c #E6E7E7",
"0.	c #E7E8E8",
"a.	c #E8E8E8",
"b.	c #ABACAE",
"c.	c #2D3236",
"d.	c #313E44",
"e.	c #596A71",
"f.	c #DEDCCA",
"g.	c #F6EED1",
"h.	c #D7C69D",
"i.	c #BC902F",
"j.	c #D9B035",
"k.	c #D1BB48",
"l.	c #E3DB5F",
"m.	c #D6CC62",
"n.	c #B6B067",
"o.	c #B4AC65",
"p.	c #A09C77",
"q.	c #D5D5D6",
"r.	c #87898C",
"s.	c #1A2529",
"t.	c #40474A",
"u.	c #4B5F68",
"v.	c #8F9894",
"w.	c #F8F1D3",
"x.	c #CBB177",
"y.	c #BB8F2C",
"z.	c #D8D159",
"A.	c #C5BC65",
"B.	c #ADA768",
"C.	c #A59D66",
"D.	c #918B64",
"E.	c #C1C1BA",
"F.	c #E7E8E9",
"G.	c #E0E0E0",
"H.	c #7D8086",
"I.	c #151F24",
"J.	c #363E41",
"K.	c #424E53",
"L.	c #5C6C73",
"M.	c #C6C6B8",
"N.	c #D4CFB9",
"O.	c #C09C4D",
"P.	c #C4982E",
"Q.	c #D2AC36",
"R.	c #D1CB60",
"S.	c #C6BD64",
"T.	c #B4AD6C",
"U.	c #A29B65",
"V.	c #948E66",
"W.	c #847F65",
"X.	c #777766",
"Y.	c #969C8F",
"Z.	c #DBDDDE",
"`.	c #AAACB3",
" +	c #696F78",
".+	c #2F3B45",
"++	c #1A262B",
"@+	c #525758",
"#+	c #475B64",
"$+	c #9EA6A0",
"%+	c #F8F0D3",
"&+	c #E7D4A6",
"*+	c #D1B579",
"=+	c #C0922D",
"-+	c #C9982C",
";+	c #D6AE34",
">+	c #D1BD48",
",+	c #C6BF62",
"'+	c #B5AD66",
")+	c #A59F6D",
"!+	c #807F6C",
"~+	c #717B63",
"{+	c #688164",
"]+	c #C2C9C6",
"^+	c #A3A8B0",
"/+	c #6C7885",
"(+	c #60676F",
"_+	c #26343E",
":+	c #263339",
"<+	c #606A6F",
"[+	c #3C5059",
"}+	c #9DA093",
"|+	c #BF9B4C",
"1+	c #CF9C2A",
"2+	c #BB932F",
"3+	c #D5CF59",
"4+	c #BAB367",
"5+	c #95906C",
"6+	c #797864",
"7+	c #78816C",
"8+	c #6A8466",
"9+	c #57806A",
"0+	c #809398",
"a+	c #475B6A",
"b+	c #5D6871",
"c+	c #23353D",
"d+	c #36434A",
"e+	c #5F6C74",
"f+	c #4C5C5E",
"g+	c #CBBC96",
"h+	c #DFC17E",
"i+	c #BB8F2E",
"j+	c #CD9B2B",
"k+	c #C09E36",
"l+	c #CEC85F",
"m+	c #AFA96A",
"n+	c #86826A",
"o+	c #77806A",
"p+	c #6C8468",
"q+	c #3D6E73",
"r+	c #24596E",
"s+	c #455E6F",
"t+	c #3C525F",
"u+	c #4F5E68",
"v+	c #23373F",
"w+	c #3D4A52",
"x+	c #505F66",
"y+	c #6B7265",
"z+	c #E2C37F",
"A+	c #BD994A",
"B+	c #CE9B2A",
"C+	c #BC932F",
"D+	c #CBB646",
"E+	c #C3BD62",
"F+	c #A49E6D",
"G+	c #868167",
"H+	c #7A7967",
"I+	c #727D65",
"J+	c #71886D",
"K+	c #386C72",
"L+	c #275E73",
"M+	c #135877",
"N+	c #32586C",
"O+	c #344A55",
"P+	c #45555E",
"Q+	c #24373D",
"R+	c #334148",
"S+	c #47555B",
"T+	c #414E49",
"U+	c #D6AB50",
"V+	c #BA8F2C",
"W+	c #C8972B",
"X+	c #BE9D36",
"Y+	c #E4DC58",
"Z+	c #D3CC5F",
"`+	c #B9B267",
" @	c #97926E",
".@	c #7E7C6A",
"+@	c #727C64",
"@@	c #6E8669",
"#@	c #5B816E",
"$@	c #255E74",
"%@	c #145675",
"&@	c #1C6083",
"*@	c #385463",
"=@	c #2B434C",
"-@	c #405158",
";@	c #22353B",
">@	c #253539",
",@	c #444F50",
"'@	c #1D3034",
")@	c #7C6B34",
"!@	c #D09C2A",
"~@	c #B28C2D",
"{@	c #DFC745",
"]@	c #D6D05A",
"^@	c #C0BA61",
"/@	c #B0A96B",
"(@	c #88846C",
"_@	c #78816B",
":@	c #618570",
"<@	c #376C71",
"[@	c #225F75",
"}@	c #175572",
"|@	c #1C6286",
"1@	c #3A6680",
"2@	c #2D454F",
"3@	c #263F46",
"4@	c #425053",
"5@	c #1D2F33",
"6@	c #17272B",
"7@	c #3F4645",
"8@	c #1E3234",
"9@	c #9B8033",
"0@	c #D2AB34",
"a@	c #C9B546",
"b@	c #CAC55E",
"c@	c #D5CC62",
"d@	c #B8B166",
"e@	c #A6A06E",
"f@	c #8B866D",
"g@	c #777663",
"h@	c #757F68",
"i@	c #6D8569",
"j@	c #5B836D",
"k@	c #3D6D73",
"l@	c #205F75",
"m@	c #195672",
"n@	c #3C7395",
"o@	c #304954",
"p@	c #253D44",
"q@	c #434C4D",
"r@	c #14252A",
"s@	c #101C20",
"t@	c #373D3B",
"u@	c #1A2C2F",
"v@	c #293C3D",
"w@	c #B4A84B",
"x@	c #DAD257",
"y@	c #D2CC5E",
"z@	c #D2C960",
"A@	c #B6B066",
"B@	c #B1AA64",
"C@	c #A49E6C",
"D@	c #96916C",
"E@	c #858066",
"F@	c #7F7E6C",
"G@	c #727C65",
"H@	c #71876C",
"I@	c #578069",
"J@	c #416E73",
"K@	c #185774",
"L@	c #1C6084",
"M@	c #3E789E",
"N@	c #334E5A",
"O@	c #273D43",
"P@	c #3F4748",
"Q@	c #122227",
"R@	c #0F1719",
"S@	c #272E2D",
"T@	c #253333",
"U@	c #263B41",
"V@	c #3C5259",
"W@	c #B4B564",
"X@	c #C0BA5F",
"Y@	c #BEB665",
"Z@	c #ADA766",
"`@	c #A69F69",
" #	c #948F6B",
".#	c #827D63",
"+#	c #807F6D",
"@#	c #79826C",
"##	c #5E8370",
"$#	c #3E6E73",
"%#	c #225E74",
"&#	c #175775",
"*#	c #1E5F82",
"=#	c #3E7AA0",
"-#	c #34505D",
";#	c #263F47",
">#	c #253C42",
",#	c #324145",
"'#	c #313C3E",
")#	c #17252A",
"!#	c #151D1E",
"~#	c #353D3A",
"{#	c #4A6474",
"]#	c #A6A877",
"^#	c #A9A365",
"/#	c #A59E6A",
"(#	c #948F6C",
"_#	c #847F67",
":#	c #7B7A67",
"<#	c #79826D",
"[#	c #72886D",
"}#	c #5F846F",
"|#	c #3A6C72",
"1#	c #165876",
"2#	c #1F5F82",
"3#	c #3E779C",
"4#	c #34505C",
"5#	c #243A40",
"6#	c #212F34",
"7#	c #0D1417",
"8#	c #343B39",
"9#	c #304145",
"0#	c #9CA4AF",
"a#	c #C0BEA3",
"b#	c #918C68",
"c#	c #868169",
"d#	c #7D7C6A",
"e#	c #77806B",
"f#	c #869882",
"g#	c #789584",
"h#	c #437075",
"i#	c #285E73",
"j#	c #155775",
"k#	c #205F81",
"l#	c #3D7394",
"m#	c #324247",
"n#	c #42494C",
"o#	c #19262C",
"p#	c #19282C",
"q#	c #4B5458",
"r#	c #394F5C",
"s#	c #E8E9EA",
"t#	c #CAC9C0",
"u#	c #7E7E6C",
"v#	c #8A917F",
"w#	c #859A82",
"x#	c #5E8570",
"y#	c #3C6F74",
"z#	c #35697F",
"A#	c #235B76",
"B#	c #3C6B88",
"C#	c #324B56",
"D#	c #2A3D44",
"E#	c #4C5355",
"F#	c #212E34",
"G#	c #16252B",
"H#	c #38474E",
"I#	c #576773",
"J#	c #D8DAD6",
"K#	c #90A38D",
"L#	c #216080",
"M#	c #3D6176",
"N#	c #304953",
"O#	c #283D43",
"P#	c #475256",
"Q#	c #353F43",
"R#	c #121C20",
"S#	c #20303B",
"T#	c #646F7A",
"U#	c #9FA5AE",
"V#	c #DCDFDF",
"W#	c #6C8C91",
"X#	c #215F76",
"Y#	c #245D7A",
"Z#	c #3D5B6B",
"`#	c #2D464F",
" $	c #455157",
".$	c #414B4F",
"+$	c #101A1E",
"@$	c #50565D",
"#$	c #B4B7B9",
"$$	c #EAEAEA",
"%$	c #727E8C",
"&$	c #4A687C",
"*$	c #3E6073",
"=$	c #3B5360",
"-$	c #2B434D",
";$	c #2A3E44",
">$	c #485458",
",$	c #414B4E",
"'$	c #111B1F",
")$	c #737578",
"!$	c #B1B3B4",
"~$	c #E8E9E8",
"{$	c #6A7684",
"]$	c #324348",
"^$	c #4C5659",
"/$	c #343F43",
"($	c #10191D",
"_$	c #6A6C6E",
":$	c #8E9092",
"<$	c #CCCDCD",
"[$	c #E1E1E1",
"}$	c #AAAEB4",
"|$	c #324347",
"1$	c #434F50",
"2$	c #404A4D",
"3$	c #1F2C31",
"4$	c #111A1E",
"5$	c #696C6E",
"6$	c #696D72",
"7$	c #636A72",
"8$	c #5D6770",
"9$	c #58646C",
"0$	c #4B5A60",
"a$	c #415257",
"b$	c #3C4D51",
"c$	c #3F4D50",
"d$	c #435051",
"e$	c #414B4C",
"f$	c #313C3F",
"g$	c #1D2B31",
"h$	c #152127",
"i$	c #222D36",
"j$	c #1A2830",
"k$	c #182930",
"l$	c #1B2D33",
"m$	c #1D2D32",
"n$	c #1D2C31",
"o$	c #19272B",
"p$	c #111E22",
"q$	c #0F1A1F",
"r$	c #131E24",
"                                                                ",
"                      . + @ # $ % & * = -                       ",
"                  ; > , ' ) ! ~ { ] ^ / ( _ :                   ",
"              < [ } | 1 2 3 4 5 6 7 8 9 0 a b c d               ",
"            e f g h i j 3 4 5 6 7 8 k k k l m n o p             ",
"          e q r s i j 3 4 5 t u v w k k l x y z A B C           ",
"        D E F G i j H I J K L M N O P Q R y S T U V W X         ",
"      Y Z ` G i j  ...+.@.#.$.%.&.*.=.-.;.>.,.U '.).!.~.{.      ",
"      ].^./.i (._.:.<.[.}.|.%.&.1.2.3.4.5.6.7.8.).9.0.a.b.      ",
"    Y c.d.i j e.f.g.h.}.$.i.&.1.j.k.4.l.m.n.o.p.0.0.0.0.q.r.    ",
"    s.t.i (.u.v.w.[.x.$.%.y.1.j.3.z.l.m.A.B.C.D.E.F.0.0.G.H.    ",
"  I.J.K.j L.M.N.[.}.O.%.&.P.Q.3.4.R.m.S.T.U.V.W.X.Y.!.Z.`. +.+  ",
"  ++@+2 #+$+%+&+*+$.=+-+1.;+>+4.l.,+S.'+)+V.W.!+~+{+]+^+/+(+_+  ",
"  :+<+3 [+}+[.}.|+%.1+2+j.3.3+l.m.4+'+C.5+W.6+7+8+9+0+/+a+b+c+  ",
"  d+e+4 f+g+h+$.i+j+1.k+3.4.l+m.S.m+C.V.n+6+o+p+9+q+r+s+t+u+v+  ",
"  w+x+5 y+z+A+%.B+C+j.D+4.l.E+S.'+F+V.G+H+I+J+9+K+L+M+N+O+P+Q+  ",
"  R+S+6 T+U+V+W+1.X+3.Y+Z+m.`+'+C. @W..@+@@@#@K+$@%@&@*@=@-@;@  ",
"  >@,@7 '@)@!@~@j.{@]@l.^@S./@C.V.(@6+_@8+:@<@[@}@|@1@2@3@4@5@  ",
"  6@7@8 k 8@9@0@a@4.b@c@d@'+e@V.f@g@h@i@j@k@l@m@|@n@o@3@p@q@r@  ",
"  s@t@u@k k v@w@x@y@z@A@B@C@D@E@F@G@H@I@J@l@K@L@M@N@3@p@O@P@Q@  ",
"  R@S@T@k l U@V@W@X@Y@Z@`@ #.#+#@#8+##$#%#&#*#=#-#;#p@>#,#'#)#  ",
"    !#~#l x y S {#]#^#/#(#_#:#<#[#}#|#L+1#2#3#4#;#p@>#5#q@6#    ",
"    7#8#9#y S T U 0#a#b#c#d#e#f#g#h#i#j#k#l#N@;#p@>#5#m#n#o#    ",
"      p#q#r#T U '.).s#t#u#v#w#x#y#z#A#k#B#C#3@p@>#5#D#E#F#      ",
"      G#H#I#U '.).9.0.!.J#K#9+K+l@M+L#M#N#3@p@>#5#O#P#Q#R#      ",
"        S#T#U#).9.0.0.0.0.V#W#X#M+Y#Z#`#3@p@>#5#O# $.$+$        ",
"          @$#$$$0.0.0.0.Z.^+%$&$*$=$-$3@p@>#5#;$>$,$'$          ",
"            )$!$~$~$0.Z.^+{$a+t+O+=@3@p@>#5#]$^$/$($            ",
"              _$:$<$[$}$/+a+t+O+=@3@p@O@|$1$2$3$4$              ",
"                  5$6$7$8$9$0$a$b$c$d$e$f$g$h$                  ",
"                      i$j$k$l$m$n$o$p$q$r$                      ",
"                                                                "};
